<svg width="160" height="28" viewBox="0 0 160 28" fill="none" xmlns="http://www.w3.org/2000/svg">
<path d="M3.528 23.24C2.84 23.24 2.24 23.2 1.728 23.12C1.216 23.056 0.96 23.024 0.96 23.024V19.928C0.96 19.928 1.16 19.952 1.56 20C1.96 20.032 2.392 20.048 2.856 20.048C3.96 20.048 4.84 19.784 5.496 19.256C6.152 18.728 6.48 17.784 6.48 16.424V5.24H10.152V16.496C10.152 17.76 9.928 18.904 9.48 19.928C9.032 20.936 8.32 21.744 7.344 22.352C6.384 22.944 5.112 23.24 3.528 23.24ZM18.6051 10.04C19.4211 10.04 20.0931 10.176 20.6211 10.448C21.1491 10.704 21.5491 10.984 21.8211 11.288C22.1091 11.592 22.2851 11.8 22.3491 11.912H22.5411V10.28H26.1891V23H22.5411V21.368H22.3491C22.2851 21.48 22.1091 21.688 21.8211 21.992C21.5491 22.296 21.1491 22.584 20.6211 22.856C20.0931 23.112 19.4211 23.24 18.6051 23.24C17.6611 23.24 16.8371 23.056 16.1331 22.688C15.4451 22.304 14.8691 21.8 14.4051 21.176C13.9411 20.536 13.5891 19.824 13.3491 19.04C13.1251 18.256 13.0131 17.456 13.0131 16.64C13.0131 15.824 13.1251 15.024 13.3491 14.24C13.5891 13.456 13.9411 12.752 14.4051 12.128C14.8691 11.488 15.4451 10.984 16.1331 10.616C16.8371 10.232 17.6611 10.04 18.6051 10.04ZM19.6611 12.992C19.0051 12.992 18.4531 13.176 18.0051 13.544C17.5731 13.896 17.2451 14.352 17.0211 14.912C16.8131 15.472 16.7091 16.048 16.7091 16.64C16.7091 17.232 16.8131 17.808 17.0211 18.368C17.2451 18.928 17.5731 19.392 18.0051 19.76C18.4531 20.112 19.0051 20.288 19.6611 20.288C20.3171 20.288 20.8611 20.112 21.2931 19.76C21.7411 19.392 22.0691 18.928 22.2771 18.368C22.5011 17.808 22.6131 17.232 22.6131 16.64C22.6131 16.048 22.5011 15.472 22.2771 14.912C22.0691 14.352 21.7411 13.896 21.2931 13.544C20.8611 13.176 20.3171 12.992 19.6611 12.992ZM35.5746 23.24C34.4546 23.24 33.4786 23.056 32.6466 22.688C31.8146 22.304 31.1266 21.8 30.5826 21.176C30.0386 20.552 29.6306 19.848 29.3586 19.064C29.0866 18.264 28.9506 17.456 28.9506 16.64C28.9506 15.824 29.0866 15.024 29.3586 14.24C29.6306 13.456 30.0386 12.752 30.5826 12.128C31.1266 11.488 31.8146 10.984 32.6466 10.616C33.4786 10.232 34.4546 10.04 35.5746 10.04C36.7106 10.04 37.6466 10.208 38.3826 10.544C39.1186 10.864 39.7026 11.272 40.1346 11.768C40.5826 12.248 40.9106 12.736 41.1186 13.232C41.3266 13.712 41.4546 14.12 41.5026 14.456C41.5666 14.776 41.5986 14.936 41.5986 14.936H38.1906C38.1906 14.936 38.1586 14.84 38.0946 14.648C38.0466 14.44 37.9346 14.208 37.7586 13.952C37.5986 13.68 37.3506 13.448 37.0146 13.256C36.6786 13.048 36.2306 12.944 35.6706 12.944C34.9826 12.944 34.4066 13.12 33.9426 13.472C33.4946 13.808 33.1586 14.256 32.9346 14.816C32.7106 15.376 32.5986 15.984 32.5986 16.64C32.5986 17.296 32.7106 17.904 32.9346 18.464C33.1586 19.024 33.4946 19.48 33.9426 19.832C34.4066 20.168 34.9826 20.336 35.6706 20.336C36.2306 20.336 36.6786 20.24 37.0146 20.048C37.3506 19.84 37.5986 19.608 37.7586 19.352C37.9346 19.08 38.0466 18.848 38.0946 18.656C38.1586 18.448 38.1906 18.344 38.1906 18.344H41.5986C41.5986 18.344 41.5666 18.512 41.5026 18.848C41.4546 19.168 41.3266 19.576 41.1186 20.072C40.9106 20.552 40.5826 21.04 40.1346 21.536C39.7026 22.016 39.1186 22.424 38.3826 22.76C37.6466 23.08 36.7106 23.24 35.5746 23.24ZM44.4523 23V4.76H48.1003V15.272L52.3003 10.28H56.4523L51.4603 16.088L56.6683 23H52.3723L48.1003 17.288V23H44.4523ZM64.3508 23V5.24H71.0708C72.5108 5.24 73.7748 5.496 74.8628 6.008C75.9668 6.504 76.8788 7.176 77.5988 8.024C78.3188 8.872 78.8628 9.824 79.2308 10.88C79.5988 11.936 79.7828 13.016 79.7828 14.12C79.7828 15.224 79.5988 16.304 79.2308 17.36C78.8628 18.416 78.3188 19.368 77.5988 20.216C76.8788 21.064 75.9668 21.744 74.8628 22.256C73.7748 22.752 72.5108 23 71.0708 23H64.3508ZM70.9028 8.48H68.0468V19.712H70.9028C72.0708 19.712 73.0308 19.44 73.7828 18.896C74.5508 18.352 75.1188 17.648 75.4868 16.784C75.8708 15.92 76.0628 15.024 76.0628 14.096C76.0628 13.168 75.8708 12.28 75.4868 11.432C75.1188 10.568 74.5508 9.864 73.7828 9.32C73.0308 8.76 72.0708 8.48 70.9028 8.48ZM87.5582 10.04C88.3742 10.04 89.0462 10.176 89.5742 10.448C90.1022 10.704 90.5022 10.984 90.7742 11.288C91.0622 11.592 91.2382 11.8 91.3022 11.912H91.4942V10.28H95.1422V23H91.4942V21.368H91.3022C91.2382 21.48 91.0622 21.688 90.7742 21.992C90.5022 22.296 90.1022 22.584 89.5742 22.856C89.0462 23.112 88.3742 23.24 87.5582 23.24C86.6142 23.24 85.7902 23.056 85.0862 22.688C84.3982 22.304 83.8222 21.8 83.3582 21.176C82.8942 20.536 82.5422 19.824 82.3022 19.04C82.0782 18.256 81.9662 17.456 81.9662 16.64C81.9662 15.824 82.0782 15.024 82.3022 14.24C82.5422 13.456 82.8942 12.752 83.3582 12.128C83.8222 11.488 84.3982 10.984 85.0862 10.616C85.7902 10.232 86.6142 10.04 87.5582 10.04ZM88.6142 12.992C87.9582 12.992 87.4062 13.176 86.9582 13.544C86.5262 13.896 86.1982 14.352 85.9742 14.912C85.7662 15.472 85.6622 16.048 85.6622 16.64C85.6622 17.232 85.7662 17.808 85.9742 18.368C86.1982 18.928 86.5262 19.392 86.9582 19.76C87.4062 20.112 87.9582 20.288 88.6142 20.288C89.2702 20.288 89.8142 20.112 90.2462 19.76C90.6942 19.392 91.0222 18.928 91.2302 18.368C91.4542 17.808 91.5662 17.232 91.5662 16.64C91.5662 16.048 91.4542 15.472 91.2302 14.912C91.0222 14.352 90.6942 13.896 90.2462 13.544C89.8142 13.176 89.2702 12.992 88.6142 12.992ZM100.558 23L96.6223 10.28H100.27L102.55 18.536L105.022 10.28H108.334L110.806 18.536L113.086 10.28H116.734L112.798 23H108.934L106.678 15.56L104.422 23H100.558ZM123.486 23.24C122.43 23.24 121.558 23.096 120.87 22.808C120.182 22.52 119.63 22.168 119.214 21.752C118.814 21.32 118.51 20.896 118.302 20.48C118.11 20.048 117.982 19.688 117.918 19.4C117.87 19.112 117.846 18.968 117.846 18.968H121.23C121.23 18.968 121.254 19.048 121.302 19.208C121.35 19.368 121.454 19.552 121.614 19.76C121.79 19.968 122.038 20.152 122.358 20.312C122.678 20.472 123.11 20.552 123.654 20.552C124.326 20.552 124.782 20.416 125.022 20.144C125.278 19.872 125.406 19.6 125.406 19.328C125.406 18.752 124.934 18.368 123.99 18.176L122.262 17.84C121.526 17.696 120.83 17.488 120.174 17.216C119.534 16.928 119.014 16.536 118.614 16.04C118.23 15.528 118.038 14.872 118.038 14.072C118.038 13.304 118.238 12.616 118.638 12.008C119.038 11.4 119.606 10.92 120.342 10.568C121.094 10.216 121.99 10.04 123.03 10.04C124.006 10.04 124.814 10.176 125.454 10.448C126.11 10.704 126.63 11.032 127.014 11.432C127.398 11.816 127.686 12.208 127.878 12.608C128.07 12.992 128.19 13.32 128.238 13.592C128.302 13.848 128.334 13.976 128.334 13.976H125.07C125.07 13.976 125.022 13.872 124.926 13.664C124.83 13.44 124.63 13.224 124.326 13.016C124.038 12.792 123.59 12.68 122.982 12.68C122.358 12.68 121.926 12.808 121.686 13.064C121.446 13.304 121.326 13.56 121.326 13.832C121.326 14.152 121.462 14.392 121.734 14.552C122.022 14.712 122.39 14.84 122.838 14.936L124.494 15.272C125.71 15.512 126.71 15.936 127.494 16.544C128.278 17.136 128.67 18 128.67 19.136C128.67 19.904 128.47 20.6 128.07 21.224C127.67 21.848 127.086 22.344 126.318 22.712C125.55 23.064 124.606 23.24 123.486 23.24ZM137.435 23.24C136.011 23.24 134.803 22.936 133.811 22.328C132.819 21.704 132.059 20.896 131.531 19.904C131.019 18.896 130.763 17.808 130.763 16.64C130.763 15.472 131.019 14.392 131.531 13.4C132.059 12.392 132.819 11.584 133.811 10.976C134.803 10.352 136.011 10.04 137.435 10.04C138.859 10.04 140.067 10.352 141.059 10.976C142.051 11.584 142.803 12.392 143.315 13.4C143.843 14.392 144.107 15.472 144.107 16.64C144.107 17.808 143.843 18.896 143.315 19.904C142.803 20.896 142.051 21.704 141.059 22.328C140.067 22.936 138.859 23.24 137.435 23.24ZM137.435 20.264C138.075 20.264 138.611 20.096 139.043 19.76C139.491 19.424 139.835 18.984 140.075 18.44C140.315 17.88 140.435 17.28 140.435 16.64C140.435 15.984 140.315 15.384 140.075 14.84C139.835 14.296 139.491 13.856 139.043 13.52C138.611 13.184 138.075 13.016 137.435 13.016C136.795 13.016 136.251 13.184 135.803 13.52C135.355 13.856 135.011 14.296 134.771 14.84C134.547 15.384 134.435 15.984 134.435 16.64C134.435 17.28 134.547 17.88 134.771 18.44C135.011 18.984 135.355 19.424 135.803 19.76C136.251 20.096 136.795 20.264 137.435 20.264ZM146.587 23V10.28H150.235V12.104H150.355C150.499 11.848 150.707 11.56 150.979 11.24C151.267 10.92 151.643 10.64 152.107 10.4C152.587 10.16 153.195 10.04 153.931 10.04C154.923 10.04 155.731 10.272 156.355 10.736C156.979 11.184 157.435 11.768 157.723 12.488C158.011 13.192 158.155 13.936 158.155 14.72V23H154.507V15.344C154.507 14.736 154.339 14.2 154.003 13.736C153.683 13.272 153.163 13.04 152.443 13.04C151.899 13.04 151.467 13.168 151.147 13.424C150.827 13.68 150.595 14.008 150.451 14.408C150.307 14.808 150.235 15.232 150.235 15.68V23H146.587Z" fill="#141F21"/>
</svg>
